<mxfile host="app.diagrams.net" modified="2022-07-14T22:44:58.366Z" agent="5.0 (Macintosh; Intel Mac OS X 10_15_7) AppleWebKit/537.36 (KHTML, like Gecko) Chrome/103.0.0.0 Safari/537.36" etag="3BweAIPvfubbXinvpnDn" version="20.1.1" type="github">
  <diagram id="WXbRl40rSkPynY5nRWmN" name="Page-1">
    <mxGraphModel dx="896" dy="588" grid="1" gridSize="10" guides="1" tooltips="1" connect="1" arrows="1" fold="1" page="1" pageScale="1" pageWidth="850" pageHeight="1100" math="0" shadow="0">
      <root>
        <mxCell id="0" />
        <mxCell id="1" parent="0" />
        <mxCell id="CRXNA2ymW0W_loP6-qAH-23" style="edgeStyle=orthogonalEdgeStyle;rounded=0;orthogonalLoop=1;jettySize=auto;html=1;" parent="1" source="CRXNA2ymW0W_loP6-qAH-2" edge="1">
          <mxGeometry relative="1" as="geometry">
            <mxPoint x="590" y="290" as="targetPoint" />
          </mxGeometry>
        </mxCell>
        <mxCell id="CRXNA2ymW0W_loP6-qAH-2" value="" style="shadow=0;dashed=0;html=1;labelPosition=center;verticalLabelPosition=bottom;verticalAlign=top;align=center;outlineConnect=0;shape=mxgraph.veeam.3d.datastore_snapshot;" parent="1" vertex="1">
          <mxGeometry x="550" y="164" width="80" height="50" as="geometry" />
        </mxCell>
        <mxCell id="CRXNA2ymW0W_loP6-qAH-3" value="File Storages on WDC04" style="text;html=1;align=center;verticalAlign=middle;resizable=0;points=[];autosize=1;strokeColor=none;fillColor=none;" parent="1" vertex="1">
          <mxGeometry x="515" y="130" width="150" height="20" as="geometry" />
        </mxCell>
        <mxCell id="CRXNA2ymW0W_loP6-qAH-8" style="edgeStyle=orthogonalEdgeStyle;rounded=0;orthogonalLoop=1;jettySize=auto;html=1;entryX=-0.02;entryY=0.5;entryDx=0;entryDy=0;entryPerimeter=0;" parent="1" source="CRXNA2ymW0W_loP6-qAH-4" target="CRXNA2ymW0W_loP6-qAH-6" edge="1">
          <mxGeometry relative="1" as="geometry" />
        </mxCell>
        <mxCell id="CRXNA2ymW0W_loP6-qAH-4" value="" style="sketch=0;html=1;dashed=0;whitespace=wrap;fillColor=#2875E2;strokeColor=#ffffff;points=[[0.005,0.63,0],[0.1,0.2,0],[0.9,0.2,0],[0.5,0,0],[0.995,0.63,0],[0.72,0.99,0],[0.5,1,0],[0.28,0.99,0]];shape=mxgraph.kubernetes.icon;prIcon=cronjob" parent="1" vertex="1">
          <mxGeometry x="170" y="194" width="50" height="48" as="geometry" />
        </mxCell>
        <mxCell id="CRXNA2ymW0W_loP6-qAH-5" value="Cronjob at 4:00 AM except Sunday" style="text;html=1;align=center;verticalAlign=middle;resizable=0;points=[];autosize=1;strokeColor=none;fillColor=none;" parent="1" vertex="1">
          <mxGeometry x="80" y="154" width="210" height="30" as="geometry" />
        </mxCell>
        <mxCell id="CRXNA2ymW0W_loP6-qAH-11" style="edgeStyle=orthogonalEdgeStyle;rounded=0;orthogonalLoop=1;jettySize=auto;html=1;" parent="1" source="CRXNA2ymW0W_loP6-qAH-6" edge="1">
          <mxGeometry relative="1" as="geometry">
            <mxPoint x="345" y="320" as="targetPoint" />
          </mxGeometry>
        </mxCell>
        <mxCell id="CRXNA2ymW0W_loP6-qAH-6" value="" style="sketch=0;html=1;dashed=0;whitespace=wrap;fillColor=#2875E2;strokeColor=#ffffff;points=[[0.005,0.63,0],[0.1,0.2,0],[0.9,0.2,0],[0.5,0,0],[0.995,0.63,0],[0.72,0.99,0],[0.5,1,0],[0.28,0.99,0]];shape=mxgraph.kubernetes.icon;prIcon=pod" parent="1" vertex="1">
          <mxGeometry x="320" y="194" width="50" height="48" as="geometry" />
        </mxCell>
        <mxCell id="CRXNA2ymW0W_loP6-qAH-10" value="&lt;div style=&quot;text-align: left;&quot;&gt;&lt;span style=&quot;background-color: initial;&quot;&gt;&lt;font face=&quot;MacDictSTHeiti&quot; color=&quot;#313131&quot;&gt;&lt;span style=&quot;font-size: 13px; caret-color: rgb(49, 49, 49);&quot;&gt;backup&lt;/span&gt;&lt;/font&gt; pod&lt;/span&gt;&lt;/div&gt;" style="text;html=1;align=center;verticalAlign=middle;resizable=0;points=[];autosize=1;strokeColor=none;fillColor=none;" parent="1" vertex="1">
          <mxGeometry x="300" y="154" width="90" height="30" as="geometry" />
        </mxCell>
        <mxCell id="CRXNA2ymW0W_loP6-qAH-13" value="stop services" style="text;html=1;align=center;verticalAlign=middle;resizable=0;points=[];autosize=1;strokeColor=none;fillColor=none;" parent="1" vertex="1">
          <mxGeometry x="350" y="260" width="90" height="20" as="geometry" />
        </mxCell>
        <mxCell id="CRXNA2ymW0W_loP6-qAH-17" style="edgeStyle=orthogonalEdgeStyle;rounded=0;orthogonalLoop=1;jettySize=auto;html=1;entryX=0.5;entryY=0;entryDx=0;entryDy=0;" parent="1" edge="1" target="CRXNA2ymW0W_loP6-qAH-18">
          <mxGeometry relative="1" as="geometry">
            <mxPoint x="200" y="350" as="targetPoint" />
            <mxPoint x="345" y="380" as="sourcePoint" />
          </mxGeometry>
        </mxCell>
        <mxCell id="CRXNA2ymW0W_loP6-qAH-16" value="" style="shape=image;html=1;verticalAlign=top;verticalLabelPosition=bottom;labelBackgroundColor=#ffffff;imageAspect=0;aspect=fixed;image=https://cdn0.iconfinder.com/data/icons/Vector-Icon-set-1-BevelAndEmboss-Net/89/alarm-clock.png" parent="1" vertex="1">
          <mxGeometry x="305" y="310" width="80" height="80" as="geometry" />
        </mxCell>
        <mxCell id="CRXNA2ymW0W_loP6-qAH-18" value="" style="ellipse;html=1;shape=endState;fillColor=#000000;strokeColor=#ff0000;" parent="1" vertex="1">
          <mxGeometry x="330" y="470" width="30" height="30" as="geometry" />
        </mxCell>
        <mxCell id="CRXNA2ymW0W_loP6-qAH-19" value="End" style="text;html=1;align=center;verticalAlign=middle;resizable=0;points=[];autosize=1;strokeColor=none;fillColor=none;" parent="1" vertex="1">
          <mxGeometry x="270" y="480" width="40" height="20" as="geometry" />
        </mxCell>
        <mxCell id="CRXNA2ymW0W_loP6-qAH-20" value="wait for a while" style="text;html=1;align=center;verticalAlign=middle;resizable=0;points=[];autosize=1;strokeColor=none;fillColor=none;" parent="1" vertex="1">
          <mxGeometry x="220" y="340" width="90" height="20" as="geometry" />
        </mxCell>
        <mxCell id="CRXNA2ymW0W_loP6-qAH-27" style="edgeStyle=orthogonalEdgeStyle;rounded=0;orthogonalLoop=1;jettySize=auto;html=1;" parent="1" source="CRXNA2ymW0W_loP6-qAH-22" target="CRXNA2ymW0W_loP6-qAH-26" edge="1">
          <mxGeometry relative="1" as="geometry" />
        </mxCell>
        <mxCell id="CRXNA2ymW0W_loP6-qAH-22" value="" style="sketch=0;pointerEvents=1;shadow=0;dashed=0;html=1;strokeColor=none;fillColor=#005F4B;labelPosition=center;verticalLabelPosition=bottom;verticalAlign=top;align=center;outlineConnect=0;shape=mxgraph.veeam2.storage_with_snapshot;" parent="1" vertex="1">
          <mxGeometry x="568.5" y="300" width="43" height="15" as="geometry" />
        </mxCell>
        <mxCell id="CRXNA2ymW0W_loP6-qAH-24" value="Daily Scheduled Snapshot at 4:03 AM&amp;nbsp;" style="text;html=1;align=center;verticalAlign=middle;resizable=0;points=[];autosize=1;strokeColor=none;fillColor=none;" parent="1" vertex="1">
          <mxGeometry x="590" y="240" width="230" height="30" as="geometry" />
        </mxCell>
        <mxCell id="CRXNA2ymW0W_loP6-qAH-26" value="" style="shadow=0;dashed=0;html=1;labelPosition=center;verticalLabelPosition=bottom;verticalAlign=top;align=center;outlineConnect=0;shape=mxgraph.veeam.3d.datastore_snapshot;" parent="1" vertex="1">
          <mxGeometry x="550" y="390" width="80" height="50" as="geometry" />
        </mxCell>
        <mxCell id="CRXNA2ymW0W_loP6-qAH-28" value="File Storages on Dallas 10" style="text;html=1;align=center;verticalAlign=middle;resizable=0;points=[];autosize=1;strokeColor=none;fillColor=none;" parent="1" vertex="1">
          <mxGeometry x="510" y="450" width="160" height="20" as="geometry" />
        </mxCell>
        <mxCell id="CRXNA2ymW0W_loP6-qAH-29" value="Replica" style="text;html=1;align=center;verticalAlign=middle;resizable=0;points=[];autosize=1;strokeColor=none;fillColor=none;" parent="1" vertex="1">
          <mxGeometry x="590" y="350" width="60" height="20" as="geometry" />
        </mxCell>
        <mxCell id="CRXNA2ymW0W_loP6-qAH-30" value="" style="endArrow=none;dashed=1;html=1;dashPattern=1 3;strokeWidth=2;rounded=0;exitX=1;exitY=0.5;exitDx=0;exitDy=0;" parent="1" source="CRXNA2ymW0W_loP6-qAH-16" target="CRXNA2ymW0W_loP6-qAH-22" edge="1">
          <mxGeometry width="50" height="50" relative="1" as="geometry">
            <mxPoint x="400" y="310" as="sourcePoint" />
            <mxPoint x="560" y="300" as="targetPoint" />
          </mxGeometry>
        </mxCell>
        <mxCell id="CRXNA2ymW0W_loP6-qAH-31" value="" style="sketch=0;aspect=fixed;html=1;points=[];align=center;image;fontSize=12;image=img/lib/mscae/OpenShift.svg;" parent="1" vertex="1">
          <mxGeometry x="130" y="70" width="32.61" height="30" as="geometry" />
        </mxCell>
        <mxCell id="CRXNA2ymW0W_loP6-qAH-32" value="OpenShift Platform" style="text;html=1;align=center;verticalAlign=middle;resizable=0;points=[];autosize=1;strokeColor=none;fillColor=none;" parent="1" vertex="1">
          <mxGeometry x="170" y="75" width="120" height="20" as="geometry" />
        </mxCell>
        <mxCell id="CRXNA2ymW0W_loP6-qAH-33" value="start service" style="text;html=1;align=center;verticalAlign=middle;resizable=0;points=[];autosize=1;strokeColor=none;fillColor=none;" parent="1" vertex="1">
          <mxGeometry x="250" y="420" width="80" height="20" as="geometry" />
        </mxCell>
        <mxCell id="CRXNA2ymW0W_loP6-qAH-34" value="Snapshot xxx" style="text;html=1;align=center;verticalAlign=middle;resizable=0;points=[];autosize=1;strokeColor=none;fillColor=none;" parent="1" vertex="1">
          <mxGeometry x="625" y="295" width="90" height="20" as="geometry" />
        </mxCell>
        <mxCell id="CRXNA2ymW0W_loP6-qAH-36" value="Snapshot action only takes a few seconds." style="text;html=1;align=center;verticalAlign=middle;resizable=0;points=[];autosize=1;strokeColor=#d79b00;fillColor=#ffe6cc;" parent="1" vertex="1">
          <mxGeometry x="530" y="515" width="240" height="20" as="geometry" />
        </mxCell>
        <mxCell id="mQwdU999YPpgApwULpEB-1" value="&lt;font color=&quot;#ff3333&quot; style=&quot;font-size: 15px;&quot;&gt;Daily Backup&lt;/font&gt;" style="text;html=1;strokeColor=none;fillColor=none;align=center;verticalAlign=middle;whiteSpace=wrap;rounded=0;fontSize=15;fontStyle=1" vertex="1" parent="1">
          <mxGeometry x="80.28" y="550" width="109.44" height="30" as="geometry" />
        </mxCell>
        <mxCell id="mQwdU999YPpgApwULpEB-2" value="" style="shape=image;html=1;verticalAlign=top;verticalLabelPosition=bottom;labelBackgroundColor=#ffffff;imageAspect=0;aspect=fixed;image=https://cdn2.iconfinder.com/data/icons/social-media-2285/512/1_Slack_colored_svg-128.png;fontColor=#FF3333;" vertex="1" parent="1">
          <mxGeometry x="462" y="194" width="48" height="48" as="geometry" />
        </mxCell>
        <mxCell id="mQwdU999YPpgApwULpEB-4" value="" style="endArrow=classic;html=1;rounded=0;fontColor=#000000;entryX=0;entryY=0.5;entryDx=0;entryDy=0;exitX=1.04;exitY=0.5;exitDx=0;exitDy=0;exitPerimeter=0;" edge="1" parent="1" source="CRXNA2ymW0W_loP6-qAH-6" target="mQwdU999YPpgApwULpEB-2">
          <mxGeometry width="50" height="50" relative="1" as="geometry">
            <mxPoint x="380" y="220" as="sourcePoint" />
            <mxPoint x="440" y="218" as="targetPoint" />
            <Array as="points" />
          </mxGeometry>
        </mxCell>
        <mxCell id="mQwdU999YPpgApwULpEB-5" value="Notice" style="text;html=1;strokeColor=none;fillColor=none;align=center;verticalAlign=middle;whiteSpace=wrap;rounded=0;fontColor=#000000;" vertex="1" parent="1">
          <mxGeometry x="380" y="184" width="60" height="30" as="geometry" />
        </mxCell>
        <mxCell id="mQwdU999YPpgApwULpEB-6" style="edgeStyle=orthogonalEdgeStyle;rounded=0;orthogonalLoop=1;jettySize=auto;html=1;" edge="1" parent="1" source="mQwdU999YPpgApwULpEB-7">
          <mxGeometry relative="1" as="geometry">
            <mxPoint x="530" y="980" as="targetPoint" />
          </mxGeometry>
        </mxCell>
        <mxCell id="mQwdU999YPpgApwULpEB-7" value="" style="shadow=0;dashed=0;html=1;labelPosition=center;verticalLabelPosition=bottom;verticalAlign=top;align=center;outlineConnect=0;shape=mxgraph.veeam.3d.datastore_snapshot;" vertex="1" parent="1">
          <mxGeometry x="490" y="854" width="80" height="50" as="geometry" />
        </mxCell>
        <mxCell id="mQwdU999YPpgApwULpEB-8" value="File Storages on WDC04" style="text;html=1;align=center;verticalAlign=middle;resizable=0;points=[];autosize=1;strokeColor=none;fillColor=none;" vertex="1" parent="1">
          <mxGeometry x="455" y="820" width="150" height="20" as="geometry" />
        </mxCell>
        <mxCell id="mQwdU999YPpgApwULpEB-9" style="edgeStyle=orthogonalEdgeStyle;rounded=0;orthogonalLoop=1;jettySize=auto;html=1;entryX=-0.02;entryY=0.5;entryDx=0;entryDy=0;entryPerimeter=0;" edge="1" parent="1" source="mQwdU999YPpgApwULpEB-10" target="mQwdU999YPpgApwULpEB-12">
          <mxGeometry relative="1" as="geometry" />
        </mxCell>
        <mxCell id="mQwdU999YPpgApwULpEB-10" value="" style="sketch=0;html=1;dashed=0;whitespace=wrap;fillColor=#2875E2;strokeColor=#ffffff;points=[[0.005,0.63,0],[0.1,0.2,0],[0.9,0.2,0],[0.5,0,0],[0.995,0.63,0],[0.72,0.99,0],[0.5,1,0],[0.28,0.99,0]];shape=mxgraph.kubernetes.icon;prIcon=cronjob" vertex="1" parent="1">
          <mxGeometry x="110" y="884" width="50" height="48" as="geometry" />
        </mxCell>
        <mxCell id="mQwdU999YPpgApwULpEB-11" style="edgeStyle=orthogonalEdgeStyle;rounded=0;orthogonalLoop=1;jettySize=auto;html=1;" edge="1" parent="1" source="mQwdU999YPpgApwULpEB-12">
          <mxGeometry relative="1" as="geometry">
            <mxPoint x="285" y="1010" as="targetPoint" />
          </mxGeometry>
        </mxCell>
        <mxCell id="mQwdU999YPpgApwULpEB-12" value="" style="sketch=0;html=1;dashed=0;whitespace=wrap;fillColor=#2875E2;strokeColor=#ffffff;points=[[0.005,0.63,0],[0.1,0.2,0],[0.9,0.2,0],[0.5,0,0],[0.995,0.63,0],[0.72,0.99,0],[0.5,1,0],[0.28,0.99,0]];shape=mxgraph.kubernetes.icon;prIcon=pod" vertex="1" parent="1">
          <mxGeometry x="260" y="884" width="50" height="48" as="geometry" />
        </mxCell>
        <mxCell id="mQwdU999YPpgApwULpEB-13" value="&lt;div style=&quot;text-align: left;&quot;&gt;&lt;span style=&quot;background-color: initial;&quot;&gt;&lt;font face=&quot;MacDictSTHeiti&quot; color=&quot;#313131&quot;&gt;&lt;span style=&quot;font-size: 13px; caret-color: rgb(49, 49, 49);&quot;&gt;backup&lt;/span&gt;&lt;/font&gt; pod&lt;/span&gt;&lt;/div&gt;" style="text;html=1;align=center;verticalAlign=middle;resizable=0;points=[];autosize=1;strokeColor=none;fillColor=none;" vertex="1" parent="1">
          <mxGeometry x="240" y="844" width="90" height="30" as="geometry" />
        </mxCell>
        <mxCell id="mQwdU999YPpgApwULpEB-14" value="stop services" style="text;html=1;align=center;verticalAlign=middle;resizable=0;points=[];autosize=1;strokeColor=none;fillColor=none;" vertex="1" parent="1">
          <mxGeometry x="290" y="950" width="90" height="20" as="geometry" />
        </mxCell>
        <mxCell id="mQwdU999YPpgApwULpEB-17" value="" style="ellipse;html=1;shape=endState;fillColor=#000000;strokeColor=#ff0000;" vertex="1" parent="1">
          <mxGeometry x="120" y="1160" width="30" height="30" as="geometry" />
        </mxCell>
        <mxCell id="mQwdU999YPpgApwULpEB-18" value="End" style="text;html=1;align=center;verticalAlign=middle;resizable=0;points=[];autosize=1;strokeColor=none;fillColor=none;" vertex="1" parent="1">
          <mxGeometry x="66.30000000000001" y="1160" width="40" height="20" as="geometry" />
        </mxCell>
        <mxCell id="mQwdU999YPpgApwULpEB-19" value="Backup script" style="text;html=1;align=center;verticalAlign=middle;resizable=0;points=[];autosize=1;strokeColor=none;fillColor=none;" vertex="1" parent="1">
          <mxGeometry x="145" y="1030" width="100" height="30" as="geometry" />
        </mxCell>
        <mxCell id="mQwdU999YPpgApwULpEB-20" style="edgeStyle=orthogonalEdgeStyle;rounded=0;orthogonalLoop=1;jettySize=auto;html=1;" edge="1" parent="1" source="mQwdU999YPpgApwULpEB-21" target="mQwdU999YPpgApwULpEB-23">
          <mxGeometry relative="1" as="geometry" />
        </mxCell>
        <mxCell id="mQwdU999YPpgApwULpEB-21" value="" style="sketch=0;pointerEvents=1;shadow=0;dashed=0;html=1;strokeColor=none;fillColor=#005F4B;labelPosition=center;verticalLabelPosition=bottom;verticalAlign=top;align=center;outlineConnect=0;shape=mxgraph.veeam2.storage_with_snapshot;" vertex="1" parent="1">
          <mxGeometry x="508.5" y="990" width="43" height="15" as="geometry" />
        </mxCell>
        <mxCell id="mQwdU999YPpgApwULpEB-22" value="Daily Scheduled Snapshot at 4:03 AM&amp;nbsp;" style="text;html=1;align=center;verticalAlign=middle;resizable=0;points=[];autosize=1;strokeColor=none;fillColor=none;" vertex="1" parent="1">
          <mxGeometry x="530" y="930" width="230" height="30" as="geometry" />
        </mxCell>
        <mxCell id="mQwdU999YPpgApwULpEB-23" value="" style="shadow=0;dashed=0;html=1;labelPosition=center;verticalLabelPosition=bottom;verticalAlign=top;align=center;outlineConnect=0;shape=mxgraph.veeam.3d.datastore_snapshot;" vertex="1" parent="1">
          <mxGeometry x="490" y="1080" width="80" height="50" as="geometry" />
        </mxCell>
        <mxCell id="mQwdU999YPpgApwULpEB-24" value="File Storages on Dallas 10" style="text;html=1;align=center;verticalAlign=middle;resizable=0;points=[];autosize=1;strokeColor=none;fillColor=none;" vertex="1" parent="1">
          <mxGeometry x="450" y="1140" width="160" height="20" as="geometry" />
        </mxCell>
        <mxCell id="mQwdU999YPpgApwULpEB-25" value="Replica" style="text;html=1;align=center;verticalAlign=middle;resizable=0;points=[];autosize=1;strokeColor=none;fillColor=none;" vertex="1" parent="1">
          <mxGeometry x="530" y="1040" width="60" height="20" as="geometry" />
        </mxCell>
        <mxCell id="mQwdU999YPpgApwULpEB-26" value="" style="endArrow=none;dashed=1;html=1;dashPattern=1 3;strokeWidth=2;rounded=0;exitX=1;exitY=0.5;exitDx=0;exitDy=0;" edge="1" parent="1" target="mQwdU999YPpgApwULpEB-21">
          <mxGeometry width="50" height="50" relative="1" as="geometry">
            <mxPoint x="325" y="1040" as="sourcePoint" />
            <mxPoint x="500" y="990" as="targetPoint" />
          </mxGeometry>
        </mxCell>
        <mxCell id="mQwdU999YPpgApwULpEB-27" value="" style="sketch=0;aspect=fixed;html=1;points=[];align=center;image;fontSize=12;image=img/lib/mscae/OpenShift.svg;" vertex="1" parent="1">
          <mxGeometry x="70" y="760" width="32.61" height="30" as="geometry" />
        </mxCell>
        <mxCell id="mQwdU999YPpgApwULpEB-28" value="OpenShift Platform" style="text;html=1;align=center;verticalAlign=middle;resizable=0;points=[];autosize=1;strokeColor=none;fillColor=none;" vertex="1" parent="1">
          <mxGeometry x="110" y="765" width="120" height="20" as="geometry" />
        </mxCell>
        <mxCell id="mQwdU999YPpgApwULpEB-29" value="start service" style="text;html=1;align=center;verticalAlign=middle;resizable=0;points=[];autosize=1;strokeColor=none;fillColor=none;" vertex="1" parent="1">
          <mxGeometry x="162.61" y="1145" width="80" height="20" as="geometry" />
        </mxCell>
        <mxCell id="mQwdU999YPpgApwULpEB-30" value="Snapshot xxx" style="text;html=1;align=center;verticalAlign=middle;resizable=0;points=[];autosize=1;strokeColor=none;fillColor=none;" vertex="1" parent="1">
          <mxGeometry x="565" y="985" width="90" height="20" as="geometry" />
        </mxCell>
        <mxCell id="mQwdU999YPpgApwULpEB-31" value="Snapshot action only takes a few seconds." style="text;html=1;align=center;verticalAlign=middle;resizable=0;points=[];autosize=1;strokeColor=#d79b00;fillColor=#ffe6cc;" vertex="1" parent="1">
          <mxGeometry x="470" y="1205" width="240" height="20" as="geometry" />
        </mxCell>
        <mxCell id="mQwdU999YPpgApwULpEB-32" value="&lt;font color=&quot;#ff3333&quot; style=&quot;font-size: 15px;&quot;&gt;Weekly Backup&lt;/font&gt;" style="text;html=1;strokeColor=none;fillColor=none;align=center;verticalAlign=middle;whiteSpace=wrap;rounded=0;fontSize=15;fontStyle=1" vertex="1" parent="1">
          <mxGeometry x="25" y="1250" width="220" height="30" as="geometry" />
        </mxCell>
        <mxCell id="mQwdU999YPpgApwULpEB-33" value="" style="shape=image;html=1;verticalAlign=top;verticalLabelPosition=bottom;labelBackgroundColor=#ffffff;imageAspect=0;aspect=fixed;image=https://cdn2.iconfinder.com/data/icons/social-media-2285/512/1_Slack_colored_svg-128.png;fontColor=#FF3333;" vertex="1" parent="1">
          <mxGeometry x="402" y="884" width="48" height="48" as="geometry" />
        </mxCell>
        <mxCell id="mQwdU999YPpgApwULpEB-34" value="" style="endArrow=classic;html=1;rounded=0;fontColor=#000000;entryX=0;entryY=0.5;entryDx=0;entryDy=0;exitX=1.04;exitY=0.5;exitDx=0;exitDy=0;exitPerimeter=0;" edge="1" parent="1" source="mQwdU999YPpgApwULpEB-12" target="mQwdU999YPpgApwULpEB-33">
          <mxGeometry width="50" height="50" relative="1" as="geometry">
            <mxPoint x="320" y="910" as="sourcePoint" />
            <mxPoint x="380" y="908" as="targetPoint" />
            <Array as="points" />
          </mxGeometry>
        </mxCell>
        <mxCell id="mQwdU999YPpgApwULpEB-35" value="Notice" style="text;html=1;strokeColor=none;fillColor=none;align=center;verticalAlign=middle;whiteSpace=wrap;rounded=0;fontColor=#000000;" vertex="1" parent="1">
          <mxGeometry x="320" y="874" width="60" height="30" as="geometry" />
        </mxCell>
        <mxCell id="mQwdU999YPpgApwULpEB-39" value="Cronjob at 4:00 AM Sunday" style="text;html=1;align=center;verticalAlign=middle;resizable=0;points=[];autosize=1;strokeColor=none;fillColor=none;" vertex="1" parent="1">
          <mxGeometry x="50" y="844" width="170" height="30" as="geometry" />
        </mxCell>
        <mxCell id="mQwdU999YPpgApwULpEB-40" value="" style="sketch=0;outlineConnect=0;fontColor=#232F3E;gradientColor=none;fillColor=#3F8624;strokeColor=none;dashed=0;verticalLabelPosition=bottom;verticalAlign=top;align=center;html=1;fontSize=12;fontStyle=0;aspect=fixed;pointerEvents=1;shape=mxgraph.aws4.backup_database;shadow=1;" vertex="1" parent="1">
          <mxGeometry x="250" y="1012" width="68.88" height="68" as="geometry" />
        </mxCell>
        <mxCell id="mQwdU999YPpgApwULpEB-44" value="" style="edgeStyle=orthogonalEdgeStyle;rounded=0;orthogonalLoop=1;jettySize=auto;html=1;fontSize=15;fontColor=#000000;entryX=0;entryY=0.5;entryDx=0;entryDy=0;" edge="1" parent="1" source="mQwdU999YPpgApwULpEB-41" target="mQwdU999YPpgApwULpEB-42">
          <mxGeometry relative="1" as="geometry" />
        </mxCell>
        <mxCell id="mQwdU999YPpgApwULpEB-41" value="" style="html=1;verticalLabelPosition=bottom;align=center;labelBackgroundColor=#ffffff;verticalAlign=top;strokeWidth=2;strokeColor=#0080F0;shadow=0;dashed=0;shape=mxgraph.ios7.icons.storage;fontSize=15;fontColor=#000000;fillColor=none;" vertex="1" parent="1">
          <mxGeometry x="253.94" y="1165" width="61" height="20" as="geometry" />
        </mxCell>
        <mxCell id="mQwdU999YPpgApwULpEB-42" value="" style="aspect=fixed;perimeter=ellipsePerimeter;html=1;align=center;shadow=0;dashed=0;fontColor=#4277BB;labelBackgroundColor=#ffffff;fontSize=12;spacingTop=3;image;image=img/lib/ibm/vpc/ObjectStorage.svg;fillColor=none;" vertex="1" parent="1">
          <mxGeometry x="380" y="1145" width="60" height="60" as="geometry" />
        </mxCell>
        <mxCell id="mQwdU999YPpgApwULpEB-43" value="" style="endArrow=classic;html=1;rounded=0;fontSize=15;fontColor=#000000;" edge="1" parent="1">
          <mxGeometry width="50" height="50" relative="1" as="geometry">
            <mxPoint x="284" y="1090" as="sourcePoint" />
            <mxPoint x="284" y="1150" as="targetPoint" />
          </mxGeometry>
        </mxCell>
        <mxCell id="mQwdU999YPpgApwULpEB-45" value="" style="endArrow=classic;html=1;rounded=0;fontSize=15;fontColor=#000000;" edge="1" parent="1">
          <mxGeometry width="50" height="50" relative="1" as="geometry">
            <mxPoint x="242.61" y="1174.5" as="sourcePoint" />
            <mxPoint x="162.61" y="1174.5" as="targetPoint" />
          </mxGeometry>
        </mxCell>
        <mxCell id="mQwdU999YPpgApwULpEB-46" value="Backup volumne" style="text;html=1;strokeColor=none;fillColor=none;align=center;verticalAlign=middle;whiteSpace=wrap;rounded=0;shadow=1;fontSize=12;fontColor=#000000;" vertex="1" parent="1">
          <mxGeometry x="229.44" y="1200" width="110" height="30" as="geometry" />
        </mxCell>
        <mxCell id="mQwdU999YPpgApwULpEB-47" value="COS" style="text;html=1;strokeColor=none;fillColor=none;align=center;verticalAlign=middle;whiteSpace=wrap;rounded=0;shadow=1;fontSize=12;fontColor=#000000;" vertex="1" parent="1">
          <mxGeometry x="380" y="1110" width="60" height="30" as="geometry" />
        </mxCell>
        <mxCell id="mQwdU999YPpgApwULpEB-48" value="" style="rounded=0;whiteSpace=wrap;html=1;shadow=1;fontSize=12;fontColor=#000000;fillColor=none;" vertex="1" parent="1">
          <mxGeometry x="30" y="730" width="810" height="570" as="geometry" />
        </mxCell>
        <mxCell id="mQwdU999YPpgApwULpEB-50" value="" style="rounded=0;whiteSpace=wrap;html=1;shadow=1;fontSize=12;fontColor=#000000;fillColor=none;" vertex="1" parent="1">
          <mxGeometry x="30" y="40" width="810" height="550" as="geometry" />
        </mxCell>
      </root>
    </mxGraphModel>
  </diagram>
</mxfile>
